<svg width="135" height="42" viewBox="0 0 135 42" fill="none" xmlns="http://www.w3.org/2000/svg">
<g clip-path="url(#clip0_1579_32)">
<path d="M10.3051 21.7168C10.9956 21.9354 11.5365 22.3037 11.9277 22.8215C12.319 23.3279 12.5146 23.955 12.5146 24.703C12.5146 25.7618 12.1003 26.5788 11.2718 27.1542C10.4547 27.7181 9.25794 28 7.68139 28H1.43271V15.9169H7.33615C8.80914 15.9169 9.93689 16.1989 10.7194 16.7627C11.5134 17.3266 11.9105 18.0919 11.9105 19.0585C11.9105 19.6454 11.7666 20.169 11.4789 20.6293C11.2027 21.0896 10.8115 21.4521 10.3051 21.7168ZM4.21182 18.0228V20.871H6.99092C7.68139 20.871 8.20499 20.7502 8.56172 20.5085C8.91846 20.2668 9.09683 19.9101 9.09683 19.4383C9.09683 18.9665 8.91846 18.6155 8.56172 18.3853C8.20499 18.1437 7.68139 18.0228 6.99092 18.0228H4.21182ZM7.47425 25.8941C8.21074 25.8941 8.76311 25.7733 9.13136 25.5316C9.51111 25.2899 9.70099 24.9159 9.70099 24.4096C9.70099 23.4084 8.95874 22.9078 7.47425 22.9078H4.21182V25.8941H7.47425ZM17.0857 19.9389C17.4079 19.4901 17.8395 19.1506 18.3803 18.9204C18.9327 18.6903 19.5656 18.5752 20.2791 18.5752V21.0609C19.9799 21.0378 19.7785 21.0263 19.675 21.0263C18.9039 21.0263 18.2998 21.245 17.8625 21.6823C17.4252 22.1081 17.2066 22.7525 17.2066 23.6156V28H14.5138V18.7133H17.0857V19.9389ZM25.6474 18.5752C27.0858 18.5752 28.1906 18.9204 28.9616 19.6109C29.7326 20.2898 30.1181 21.3198 30.1181 22.7007V28H27.5979V26.8435C27.0916 27.7066 26.148 28.1381 24.767 28.1381C24.0536 28.1381 23.4321 28.0173 22.9028 27.7756C22.3849 27.5339 21.9879 27.2002 21.7117 26.7744C21.4356 26.3486 21.2975 25.8653 21.2975 25.3245C21.2975 24.4614 21.6197 23.7824 22.2641 23.2876C22.92 22.7928 23.927 22.5454 25.2849 22.5454H27.4253C27.4253 21.9585 27.2469 21.5097 26.8902 21.199C26.5335 20.8767 25.9984 20.7156 25.2849 20.7156C24.79 20.7156 24.301 20.7962 23.8176 20.9573C23.3458 21.1069 22.9431 21.314 22.6093 21.5787L21.6427 19.6972C22.149 19.3405 22.7532 19.0643 23.4552 18.8686C24.1686 18.673 24.8994 18.5752 25.6474 18.5752ZM25.4402 26.3256C25.9005 26.3256 26.3091 26.2221 26.6658 26.0149C27.0225 25.7963 27.2757 25.4798 27.4253 25.0655V24.1162H25.5783C24.4736 24.1162 23.9212 24.4786 23.9212 25.2036C23.9212 25.5489 24.0536 25.825 24.3182 26.0322C24.5944 26.2278 24.9684 26.3256 25.4402 26.3256ZM38.2717 18.5752C39.4224 18.5752 40.3488 18.9204 41.0508 19.6109C41.7642 20.3014 42.121 21.3255 42.121 22.6834V28H39.4282V23.0977C39.4282 22.3612 39.2671 21.8146 38.9449 21.4579C38.6226 21.0896 38.1566 20.9055 37.5467 20.9055C36.8677 20.9055 36.3269 21.1184 35.9241 21.5442C35.5213 21.9585 35.3199 22.5799 35.3199 23.4084V28H32.6271V18.7133H35.1991V19.8008C35.5558 19.4095 35.9989 19.1103 36.5282 18.9032C37.0576 18.6845 37.6387 18.5752 38.2717 18.5752ZM54.1943 15.1919V28H51.6223V26.9298C50.9549 27.7353 49.9882 28.1381 48.7224 28.1381C47.8478 28.1381 47.0537 27.9425 46.3403 27.5512C45.6383 27.1599 45.0859 26.6018 44.6832 25.8768C44.2804 25.1518 44.079 24.3118 44.079 23.3566C44.079 22.4015 44.2804 21.5614 44.6832 20.8365C45.0859 20.1115 45.6383 19.5534 46.3403 19.1621C47.0537 18.7708 47.8478 18.5752 48.7224 18.5752C49.9077 18.5752 50.834 18.9492 51.5015 19.6972V15.1919H54.1943ZM49.1884 25.9286C49.8674 25.9286 50.4313 25.6985 50.8801 25.2382C51.3289 24.7663 51.5533 24.1392 51.5533 23.3566C51.5533 22.5741 51.3289 21.9527 50.8801 21.4924C50.4313 21.0206 49.8674 20.7847 49.1884 20.7847C48.498 20.7847 47.9283 21.0206 47.4795 21.4924C47.0307 21.9527 46.8063 22.5741 46.8063 23.3566C46.8063 24.1392 47.0307 24.7663 47.4795 25.2382C47.9283 25.6985 48.498 25.9286 49.1884 25.9286ZM68.0302 15.9169V28H65.7345L59.7102 20.6638V28H56.9483V15.9169H59.2614L65.2684 23.2531V15.9169H68.0302ZM74.5169 18.5752C75.9553 18.5752 77.0601 18.9204 77.8311 19.6109C78.6021 20.2898 78.9876 21.3198 78.9876 22.7007V28H76.4674V26.8435C75.9611 27.7066 75.0174 28.1381 73.6365 28.1381C72.923 28.1381 72.3016 28.0173 71.7723 27.7756C71.2544 27.5339 70.8574 27.2002 70.5812 26.7744C70.305 26.3486 70.1669 25.8653 70.1669 25.3245C70.1669 24.4614 70.4892 23.7824 71.1336 23.2876C71.7895 22.7928 72.7965 22.5454 74.1544 22.5454H76.2948C76.2948 21.9585 76.1164 21.5097 75.7597 21.199C75.4029 20.8767 74.8678 20.7156 74.1544 20.7156C73.6595 20.7156 73.1705 20.7962 72.6871 20.9573C72.2153 21.1069 71.8125 21.314 71.4788 21.5787L70.5122 19.6972C71.0185 19.3405 71.6227 19.0643 72.3246 18.8686C73.0381 18.673 73.7689 18.5752 74.5169 18.5752ZM74.3097 26.3256C74.77 26.3256 75.1785 26.2221 75.5353 26.0149C75.892 25.7963 76.1452 25.4798 76.2948 25.0655V24.1162H74.4478C73.3431 24.1162 72.7907 24.4786 72.7907 25.2036C72.7907 25.5489 72.923 25.825 73.1877 26.0322C73.4639 26.2278 73.8379 26.3256 74.3097 26.3256ZM93.3898 18.5752C94.5521 18.5752 95.4727 18.9204 96.1517 19.6109C96.8421 20.2898 97.1874 21.314 97.1874 22.6834V28H94.4946V23.0977C94.4946 22.3612 94.3392 21.8146 94.0285 21.4579C93.7293 21.0896 93.2978 20.9055 92.7339 20.9055C92.101 20.9055 91.6004 21.1126 91.2321 21.5269C90.8639 21.9297 90.6798 22.5338 90.6798 23.3394V28H87.987V23.0977C87.987 21.6362 87.4001 20.9055 86.2263 20.9055C85.6049 20.9055 85.11 21.1126 84.7418 21.5269C84.3736 21.9297 84.1894 22.5338 84.1894 23.3394V28H81.4966V18.7133H84.0686V19.7835C84.4138 19.3922 84.8339 19.093 85.3287 18.8859C85.835 18.6788 86.3874 18.5752 86.9858 18.5752C87.6417 18.5752 88.2344 18.7075 88.7637 18.9722C89.2931 19.2254 89.7189 19.5994 90.0411 20.0942C90.4208 19.6109 90.8984 19.2369 91.4738 18.9722C92.0607 18.7075 92.6994 18.5752 93.3898 18.5752ZM10.3397 46.3912C10.3397 46.4257 10.3224 46.6674 10.2879 47.1162H3.26243C3.38902 47.6915 3.68822 48.1461 4.16003 48.4798C4.63185 48.8135 5.21874 48.9804 5.92071 48.9804C6.40403 48.9804 6.82982 48.9114 7.19806 48.7733C7.57782 48.6237 7.9288 48.3935 8.25102 48.0828L9.68372 49.6363C8.80914 50.6375 7.53179 51.1381 5.85166 51.1381C4.80446 51.1381 3.87809 50.9367 3.07255 50.5339C2.26702 50.1197 1.6456 49.55 1.20831 48.825C0.771015 48.1001 0.552369 47.2773 0.552369 46.3566C0.552369 45.4475 0.765262 44.6305 1.19105 43.9055C1.62834 43.169 2.22098 42.5994 2.96898 42.1966C3.72849 41.7823 4.57431 41.5752 5.50643 41.5752C6.41554 41.5752 7.23834 41.7708 7.97483 42.1621C8.71132 42.5534 9.28671 43.1172 9.70099 43.8537C10.1268 44.5787 10.3397 45.4245 10.3397 46.3912ZM5.52369 43.6121C4.91379 43.6121 4.40169 43.7847 3.98742 44.1299C3.57314 44.4751 3.31997 44.947 3.22791 45.5454H7.80222C7.71015 44.9585 7.45699 44.4924 7.04271 44.1472C6.62843 43.7904 6.12209 43.6121 5.52369 43.6121Z" fill="white"/>
</g>
<defs>
<clipPath id="clip0_1579_32">
<rect width="134.496" height="41.7154" fill="white" transform="translate(0.25 0.227051)"/>
</clipPath>
</defs>
</svg>
